<svg width="391" height="134" viewBox="0 0 391 134" fill="none" xmlns="http://www.w3.org/2000/svg">
<path d="M106.639 14.223C104.166 12.362 101.605 10.703 98.9753 9.24002C97.0713 8.18102 94.6803 8.67602 93.3713 10.417L76.8793 32.329L75.7033 33.892C73.9173 36.265 71.0653 37.557 68.0983 37.421C67.0163 37.372 65.9343 37.382 64.8563 37.45C56.5673 37.975 48.5483 41.975 43.1623 49.131C38.8323 54.884 36.9333 61.707 37.2833 68.376C37.3463 69.577 38.0403 70.674 39.1343 71.172C41.4043 72.204 43.1513 74.309 43.5883 77.002C44.2063 80.811 41.8663 84.553 38.1703 85.661C33.8133 86.967 29.3383 84.298 28.3563 79.937C27.8243 77.575 28.4353 75.226 29.8193 73.457C30.5873 72.476 30.9733 71.254 30.8633 70.013C30.1053 61.461 32.3833 52.611 37.9533 45.211C44.9793 35.877 55.6703 30.937 66.5153 30.874C68.6053 30.862 70.5673 29.863 71.8243 28.193L87.0123 8.01505C88.2013 6.43605 87.4333 4.16702 85.5363 3.61002C60.1063 -3.84998 31.6313 4.54404 14.5763 26.756C-7.52267 55.537 -2.15267 97.035 26.5633 119.218C29.2503 121.294 32.0453 123.127 34.9233 124.726C36.8163 125.778 39.1973 125.263 40.5003 123.533L56.9923 101.622L58.1683 100.059C59.9543 97.686 62.8063 96.394 65.7733 96.53C66.8553 96.579 67.9373 96.569 69.0153 96.501C77.3043 95.976 85.3233 91.976 90.7093 84.82C95.0393 79.067 96.9383 72.244 96.5883 65.575C96.5253 64.374 95.8313 63.277 94.7373 62.779C92.4673 61.747 90.7203 59.642 90.2833 56.949C89.6653 53.14 92.0053 49.398 95.7013 48.291C100.058 46.985 104.533 49.654 105.515 54.015C106.047 56.377 105.436 58.726 104.052 60.495C103.284 61.476 102.898 62.698 103.008 63.939C103.766 72.491 101.488 81.341 95.9183 88.741C88.8923 98.075 78.2013 103.015 67.3563 103.078C65.2663 103.09 63.3043 104.089 62.0473 105.759L46.8603 125.936C45.6803 127.504 46.4213 129.778 48.3043 130.332C73.9373 137.866 102.672 129.287 119.688 106.68C141.614 77.545 135.773 36.151 106.639 14.223Z" fill="#00A0FF"/>
<path d="M215.612 32.2567L215.611 30.6897C215.61 29.5567 214.691 28.6377 213.558 28.6377H162.134C161 28.6377 160.081 29.5567 160.081 30.6907V33.8277C160.081 34.9617 161 35.8807 162.134 35.8807H205.763C207.018 35.8807 207.984 36.9877 207.797 38.2287C206.573 46.3417 202.736 61.5137 190.746 76.0827C189.899 77.1117 188.327 77.0937 187.505 76.0437C177.473 63.2157 174.386 50.0637 173.543 45.2177C173.359 44.1567 172.377 43.4257 171.306 43.5397L169.663 43.7137L168.214 43.8647C167.026 43.9887 166.188 45.0927 166.406 46.2677C167.434 51.8257 171.179 67.1087 182.955 81.6557C183.638 82.4987 183.58 83.7317 182.78 84.4657C168.444 97.6147 155.551 100.497 150.939 101.123C149.912 101.263 149.145 102.132 149.15 103.169L149.165 106.338C149.171 107.558 150.23 108.512 151.441 108.37C156.925 107.725 171.557 104.627 187.725 89.7567C188.524 89.0227 189.739 89.0227 190.535 89.7597C198.348 96.9947 208.334 103.971 221.801 108.255C222.892 108.602 224.06 107.968 224.383 106.87L225.27 103.863C225.588 102.785 224.973 101.665 223.903 101.324C211.651 97.4157 202.618 91.1237 195.525 84.6727C194.707 83.9287 194.666 82.6667 195.384 81.8267C215.368 58.4307 215.614 33.3947 215.612 32.2567Z" fill="#00A0FF"/>
<path d="M251.31 25.355H248.173C247.039 25.355 246.12 26.274 246.12 27.408V38.407C246.12 39.541 245.201 40.46 244.067 40.46H236.688C235.554 40.46 234.635 41.379 234.635 42.513V45.65C234.635 46.784 235.554 47.703 236.688 47.703H244.067C245.201 47.703 246.12 48.622 246.12 49.756V65.689C246.12 66.823 245.201 67.742 244.067 67.742H236.688C235.554 67.742 234.635 68.661 234.635 69.795V72.932C234.635 74.066 235.554 74.985 236.688 74.985H244.067C245.201 74.985 246.12 75.904 246.12 77.038V92.103C246.12 95.373 244.813 100.709 236.472 101.413C235.394 101.504 234.551 102.378 234.551 103.46V106.585C234.551 107.781 235.568 108.742 236.76 108.64C244.859 107.947 253.363 103.348 253.363 92.103V77.038C253.363 75.904 254.282 74.985 255.416 74.985H261.973C263.107 74.985 264.026 74.066 264.026 72.932V69.795C264.026 68.661 263.107 67.742 261.973 67.742H255.416C254.282 67.742 253.363 66.823 253.363 65.689V49.756C253.363 48.622 254.282 47.703 255.416 47.703H261.973C263.107 47.703 264.026 46.784 264.026 45.65V42.513C264.026 41.379 263.107 40.46 261.973 40.46H255.416C254.282 40.46 253.363 39.541 253.363 38.407V27.408C253.363 26.274 252.444 25.355 251.31 25.355Z" fill="#00A0FF"/>
<path d="M267.646 106.092C267.646 107.226 268.565 108.145 269.699 108.145H292.837C303.076 108.145 311.406 100.205 311.406 90.4447V41.8147C311.406 40.6807 310.487 39.7617 309.353 39.7617H269.699C268.565 39.7617 267.646 40.6807 267.646 41.8147V106.092ZM292.837 100.902H276.942C275.808 100.902 274.889 99.9827 274.889 98.8487V77.0387C274.889 75.9047 275.808 74.9857 276.942 74.9857H302.109C303.243 74.9857 304.162 75.9047 304.162 77.0387V90.4447C304.163 96.2107 299.082 100.902 292.837 100.902ZM304.163 49.0587V65.6897C304.163 66.8237 303.244 67.7427 302.11 67.7427H276.943C275.809 67.7427 274.89 66.8237 274.89 65.6897V49.0587C274.89 47.9247 275.809 47.0057 276.943 47.0057H302.11C303.244 47.0057 304.163 47.9247 304.163 49.0587Z" fill="#00A0FF"/>
<path d="M299.171 25.3008H278.731C277.597 25.3008 276.678 26.2198 276.678 27.3538V30.4908C276.678 31.6248 277.597 32.5438 278.731 32.5438H299.171C300.305 32.5438 301.224 31.6248 301.224 30.4908V27.3538C301.224 26.2198 300.305 25.3008 299.171 25.3008Z" fill="#00A0FF"/>
<path d="M377.302 28.4868H334.729C333.595 28.4868 332.676 29.4058 332.676 30.5398V33.6768C332.676 34.8108 333.595 35.7298 334.729 35.7298H377.302C378.436 35.7298 379.355 34.8108 379.355 33.6768V30.5398C379.355 29.4058 378.436 28.4868 377.302 28.4868Z" fill="#00A0FF"/>
<path d="M359.109 64.7996H388.766C389.9 64.7996 390.819 63.8806 390.819 62.7466V59.6096C390.819 58.4756 389.9 57.5566 388.766 57.5566H323.256C322.122 57.5566 321.203 58.4756 321.203 59.6096V62.7466C321.203 63.8806 322.122 64.7996 323.256 64.7996H343.53C345.168 64.7996 346.147 66.6236 345.241 67.9886L331.749 92.3316C331.386 92.8766 331.117 93.4116 330.928 93.9646C329.799 97.2636 330.327 100.803 332.379 103.675C334.529 106.685 338.085 108.481 341.888 108.481H378.864C380.526 108.481 382.045 107.652 382.925 106.263C383.788 104.904 383.894 103.224 383.208 101.768L374.622 85.1246C374.102 84.1166 372.863 83.7216 371.856 84.2416L369.068 85.6806C368.06 86.2006 367.665 87.4386 368.185 88.4466L373.24 98.2426C373.945 99.6096 372.953 101.238 371.415 101.238H341.887C340.395 101.238 339.077 100.591 338.271 99.4626C337.904 98.9506 337.372 97.9326 337.682 96.6646C337.734 96.4526 337.839 96.2516 337.96 96.0686L354.357 67.3486C355.415 65.7566 357.198 64.7996 359.109 64.7996Z" fill="#00A0FF"/>
</svg>
